<svg xmlns="http://www.w3.org/2000/svg" viewBox="0 0 64 64">
  <defs>
    <linearGradient id="orb" x1="20%" y1="10%" x2="80%" y2="100%">
      <stop offset="0%" stop-color="#5b4bb7"/>
      <stop offset="55%" stop-color="#9f89ff"/>
      <stop offset="100%" stop-color="#f472b6"/>
    </linearGradient>
    <linearGradient id="monogram" x1="0%" y1="0%" x2="100%" y2="100%">
      <stop offset="0%" stop-color="#ffffff"/>
      <stop offset="100%" stop-color="#f3f4ff"/>
    </linearGradient>
    <filter id="orbShadow" x="-35%" y="-35%" width="170%" height="170%">
      <feDropShadow dx="0" dy="3" stdDeviation="4" flood-color="#2c1a58" flood-opacity="0.35"/>
    </filter>
  </defs>
  <rect width="64" height="64" fill="none" />
  <circle cx="32" cy="32" r="26" fill="url(#orb)" filter="url(#orbShadow)" />
  <path
    d="M20 19c0-3.866 3.134-7 7-7h17a4 4 0 0 1 0 8H28v5h13a4 4 0 1 1 0 8H28v5h13a4 4 0 0 1 0 8H27c-3.866 0-7-3.134-7-7V19z"
    fill="url(#monogram)"
  />
</svg>
